<svg xmlns="http://www.w3.org/2000/svg" id="Layer_1" data-name="Layer 1" viewBox="0 0 400 400"><defs></defs><title>KnowledgeOwl-square-logo</title><path class="cls-1" d="M275.15,290.16c21.85-19.44,34.35-47.33,31.51-76.83-2.52-26.2-16.66-48.8-37.41-64,20.05-18.51,30.1-42.35,24.65-65l0-.06c-6.09-25.59-2.49-46.19-6.2-66.28a10.23,10.23,0,0,0-17.78-5.37c-6.24,6.1-26.42,19.79-55.19,20.68l-.54,0a5.47,5.47,0,0,1-1.12.16,5.33,5.33,0,0,1-1.28.18l-.27.08a5.1,5.1,0,0,1-1.24.24l0,0h0c-10.17,2-21.13.77-32,3.39C167.54,40,157.58,42.89,148.5,47.7a4.32,4.32,0,0,1-.63.41l-.06.12-1.09.65c-27,13.82-52.67,10.4-61.3,7.7.08,0,.16.06,0,0h0l-.87-.32-.13-.05a5,5,0,0,1-.67-.15l-.36,0a13.11,13.11,0,0,0-6.56,1.17A10.4,10.4,0,0,0,72,69.6c5.82,19.6,18.4,36.41,24.59,62,3.1,12.91,10.83,23.88,21.75,32.28-1.2,1.25-2.37,2.56-3.53,3.88-33.42,34-57.18,90-66,125.92a47.94,47.94,0,0,0-.94,5.43l0,.87h0a26.43,26.43,0,0,0,2.51,16.23c4,8.2,11.72,13,20.85,14.78,6.16,1.2,13.16.21,20.34-1.61a414.52,414.52,0,0,0,63.23-21.6c17.06,7.93,36.84,11.46,57.54,10l.05,0,80.81-8.16C292.41,301.47,285.35,294,275.15,290.16Z"/><path class="cls-2" d="M257.28,158.88a53.56,53.56,0,0,1,2.86,5.12c28.86,59-30.48,108-94.2,138.16a104.14,104.14,0,0,0,45.55,5.9c47.39-4.56,91.18-43,86.3-93.63-2.47-25.6-16.55-45.76-36-58.86q-2.2,1.69-4.51,3.31Z"/><path class="cls-3" d="M185.53,94.58A35.11,35.11,0,1,0,192.89,116a28.09,28.09,0,0,0-.19-3.42A34.55,34.55,0,0,0,185.53,94.58Z"/><path class="cls-3" d="M205.12,95.56a33.62,33.62,0,1,1,2.93,14.68,32.82,32.82,0,0,1-3-13.7C205.09,96.22,205.09,95.89,205.12,95.56Z"/><path class="cls-4" d="M208.06,110.25a46.11,46.11,0,0,1-15.3,2.36h-.06a34.55,34.55,0,0,0-7.17-18,55.16,55.16,0,0,1,7.22-.47,49.72,49.72,0,0,1,12.37,1.45c0,.33,0,.66,0,1A32.82,32.82,0,0,0,208.06,110.25Z"/><path class="cls-2" d="M158.14,98.35a8.18,8.18,0,1,0,11.1,3.25A8.17,8.17,0,0,0,158.14,98.35Z"/><circle class="cls-5" cx="243" cy="86.09" r="8.18" transform="translate(-11.49 127.23) rotate(-28.69)"/><path class="cls-2" d="M283.53,83.69A50,50,0,0,0,188,78l0,.14a50,50,0,1,0,13.14,54.25l0-.19a50,50,0,0,0,82.42-48.56ZM161.32,142.13a26.11,26.11,0,1,1,19.3-31.48A26.11,26.11,0,0,1,161.32,142.13ZM242,122.6a26.11,26.11,0,1,1,19.29-31.48A26.11,26.11,0,0,1,242,122.6Z"/><path class="cls-5" d="M204.62,167.48,199.09,162a5.49,5.49,0,0,1,2.46-9.19l7.55-2a5.49,5.49,0,0,1,6.73,6.73l-2,7.55A5.49,5.49,0,0,1,204.62,167.48Z"/><polygon class="cls-6" points="23.25 337.21 26.77 337.21 26.77 358.98 39.64 347.84 44.77 347.84 29.61 360.96 45.65 375.38 40.63 375.38 26.77 362.93 26.77 375.38 23.25 375.38 23.25 337.21 23.25 337.21"/><path class="cls-6" d="M48.42,347.84h3.53v4.94a14.8,14.8,0,0,1,4.72-4.22,11.76,11.76,0,0,1,5.64-1.39,9.81,9.81,0,0,1,5.5,1.56A9.35,9.35,0,0,1,71.34,353q1.14,2.65,1.14,8.26v14.16H69V362.26a31.6,31.6,0,0,0-.41-6.34,6.49,6.49,0,0,0-7-5.48,8.75,8.75,0,0,0-5.77,2.13,9.86,9.86,0,0,0-3.36,5.26,36.43,36.43,0,0,0-.51,7.48v10.09H48.42V347.84Z"/><path class="cls-6" d="M102.81,351.77a14.44,14.44,0,0,0-21.16,0,14.66,14.66,0,0,0,.22,20,14.63,14.63,0,0,0,20.73,0,14.7,14.7,0,0,0,.22-20Zm-1.26,15.55a10.28,10.28,0,0,1-3.92,4,11.12,11.12,0,0,1-10.8,0,10.28,10.28,0,0,1-3.92-4,11.22,11.22,0,0,1-1.44-5.55,10.86,10.86,0,0,1,3.17-7.87,10.47,10.47,0,0,1,15.16,0,10.84,10.84,0,0,1,3.19,7.87A11.22,11.22,0,0,1,101.55,367.32Z"/><polygon class="cls-6" points="108.55 347.84 112.21 347.84 120.61 367.81 129.4 347.84 130.05 347.84 138.86 367.81 147.44 347.84 151.07 347.84 139.17 375.38 138.49 375.38 129.74 355.67 120.95 375.38 120.24 375.38 108.55 347.84 108.55 347.84"/><polygon class="cls-6" points="154 337.21 157.53 337.21 157.53 375.38 154 375.38 154 337.21 154 337.21"/><path class="cls-6" d="M184.26,370.13a10.8,10.8,0,0,1-3.4,1.93,12,12,0,0,1-4.11.73,9.82,9.82,0,0,1-7.36-3,11.33,11.33,0,0,1-3.08-7.78h24.89a14.51,14.51,0,0,0-3.05-9.45,13.69,13.69,0,0,0-11.29-5.36,13.21,13.21,0,0,0-11,5.19,14.61,14.61,0,0,0-3.23,9.31,14.81,14.81,0,0,0,3.81,10q3.81,4.41,10.57,4.41a15.28,15.28,0,0,0,5.46-.92,13.69,13.69,0,0,0,4.34-2.68,16.32,16.32,0,0,0,3.41-4.63l-3-1.57A16.29,16.29,0,0,1,184.26,370.13Zm-14.35-16.91a10.22,10.22,0,0,1,7-2.64,11.09,11.09,0,0,1,4.71,1,10,10,0,0,1,3.61,2.8,11.36,11.36,0,0,1,2.07,4.6H166.67A10.15,10.15,0,0,1,169.92,353.22Z"/><path class="cls-6" d="M221,338v14.94c-2-1.93-3.07-3.37-4.9-4.33a13.17,13.17,0,0,0-6.17-1.44,13.64,13.64,0,0,0-10.06,4.22,13.91,13.91,0,0,0-4.19,10.15,14.17,14.17,0,0,0,4.13,10.29,13.45,13.45,0,0,0,10,4.23,14,14,0,0,0,6.13-1.35c1.85-.9,3.08-2.26,5.08-4.06V376h3V338Zm-1.36,29.37a10.19,10.19,0,0,1-4,4,11,11,0,0,1-5.5,1.46,10.47,10.47,0,0,1-5.39-1.48,10.77,10.77,0,0,1-4-4.11,11.11,11.11,0,0,1,0-11.09,10.7,10.7,0,0,1,9.43-5.51,10.39,10.39,0,0,1,7.73,3.2,10.9,10.9,0,0,1,3.15,8A11.27,11.27,0,0,1,219.64,367.37Z"/><path class="cls-6" d="M255,348v4.63c-2-2-3.2-3.36-5-4.2a13,13,0,0,0-5.68-1.26A14.27,14.27,0,0,0,232,368.43a13.43,13.43,0,0,0,5.17,5.06,14.35,14.35,0,0,0,7.14,1.88,13.43,13.43,0,0,0,6-1.36c1.93-.9,2.72-2.2,4.72-3.88v1.42c0,3-.18,5.22-.89,6.58a8,8,0,0,1-3.48,3.37,12.63,12.63,0,0,1-6.08,1.34,13,13,0,0,1-6.13-1.05c-1.66-.88-3-2.8-4-3.8h-3.84c1,1,2.08,3.56,3.26,4.68a12.6,12.6,0,0,0,4.59,2.57,19,19,0,0,0,6.36.93A15.87,15.87,0,0,0,253,384.1a11.13,11.13,0,0,0,4.9-5.85,25.68,25.68,0,0,0,1.08-8.49V348Zm-2.47,21.13a12,12,0,0,1-15.72,0,10,10,0,0,1-3-7.49,11,11,0,0,1,1.47-5.56,10.51,10.51,0,0,1,4-4,11.22,11.22,0,0,1,5.59-1.45,10.78,10.78,0,0,1,5.38,1.42,10,10,0,0,1,3.87,3.85,11.19,11.19,0,0,1,1.37,5.55A10.38,10.38,0,0,1,252.53,369.13Z"/><path class="cls-6" d="M285.8,370.13a10.8,10.8,0,0,1-3.4,1.93,12,12,0,0,1-4.11.73,9.82,9.82,0,0,1-7.36-3,11.34,11.34,0,0,1-3.08-7.78h24.89a14.51,14.51,0,0,0-3.05-9.45,13.68,13.68,0,0,0-11.29-5.36,13.21,13.21,0,0,0-11,5.19,14.61,14.61,0,0,0-3.23,9.31,14.81,14.81,0,0,0,3.81,10q3.81,4.41,10.57,4.41a15.28,15.28,0,0,0,5.46-.92,13.69,13.69,0,0,0,4.34-2.68,16.32,16.32,0,0,0,3.41-4.63l-3-1.57A16.29,16.29,0,0,1,285.8,370.13Zm-14.35-16.91a10.22,10.22,0,0,1,7-2.64,11.09,11.09,0,0,1,4.71,1,10,10,0,0,1,3.61,2.8,11.36,11.36,0,0,1,2.07,4.6H268.21A10.15,10.15,0,0,1,271.45,353.22Z"/><path class="cls-7" d="M322,351.77a14.44,14.44,0,0,0-21.16,0,14.66,14.66,0,0,0,.22,20,14.63,14.63,0,0,0,20.73,0,14.7,14.7,0,0,0,.22-20Zm-1.26,15.55a10.28,10.28,0,0,1-3.92,4,11.12,11.12,0,0,1-10.8,0,10.28,10.28,0,0,1-3.92-4,11.22,11.22,0,0,1-1.44-5.55,10.86,10.86,0,0,1,3.17-7.87,10.47,10.47,0,0,1,15.16,0,10.84,10.84,0,0,1,3.19,7.87A11.22,11.22,0,0,1,320.77,367.32Z"/><polygon class="cls-7" points="327.78 347.84 331.43 347.84 339.83 367.81 348.62 347.84 349.28 347.84 358.09 367.81 366.66 347.84 370.3 347.84 358.4 375.38 357.72 375.38 348.96 355.67 340.18 375.38 339.47 375.38 327.78 347.84 327.78 347.84"/><rect class="cls-3" x="373.23" y="337.21" width="3.53" height="38.17"/></svg>